inDegrees=no
num_controls=7
num_derivatives=13
num_iterations=158
num_multipliers=7
num_parameters=0
num_slacks=7
num_states=26
objective=5.074068
objective_accelerations=0.404681
objective_balance=0.004072
objective_effort=0.362040
objective_height=4.279932
objective_ligament=0.023344
solver_duration=1451.081451
status=Solve_Succeeded
success=true
DataType=double
version=3
OpenSimVersion=4.4-2022-07-23-0e9fedc
endheader
time	/jointset/ground_pelvis/pelvis_tilt/value	/jointset/ground_pelvis/pelvis_tx/value	/jointset/ground_pelvis/pelvis_ty/value	/jointset/hip_r/hip_flexion_r/value	/jointset/hip_r/hip_adduction_r/value	/jointset/hip_r/hip_rotation_r/value	/jointset/back/lumbar_extension/value	/jointset/patellofemoral_r/patellar_flexion_r/value	/jointset/knee_r/knee_flexion_r/value	/jointset/knee_r/knee_adduction_r/value	/jointset/knee_r/knee_rotation_r/value	/jointset/ankle_r/ankle_angle_r/value	/jointset/subtalar_r/subtalar_angle_r/value	/jointset/ground_pelvis/pelvis_tilt/speed	/jointset/ground_pelvis/pelvis_tx/speed	/jointset/ground_pelvis/pelvis_ty/speed	/jointset/hip_r/hip_flexion_r/speed	/jointset/hip_r/hip_adduction_r/speed	/jointset/hip_r/hip_rotation_r/speed	/jointset/back/lumbar_extension/speed	/jointset/patellofemoral_r/patellar_flexion_r/speed	/jointset/knee_r/knee_flexion_r/speed	/jointset/knee_r/knee_adduction_r/speed	/jointset/knee_r/knee_rotation_r/speed	/jointset/ankle_r/ankle_angle_r/speed	/jointset/subtalar_r/subtalar_angle_r/speed	/forceset/tau_hip_flexion_r	/forceset/tau_hip_adduction_r	/forceset/tau_hip_rotation_r	/forceset/tau_knee_flexion_r	/forceset/tau_ankle_angle_r	/forceset/tau_subtalar_angle_r	/forceset/tau_lumbar_extension	lambda_cid13_p0	lambda_cid14_p0	lambda_cid14_p1	lambda_cid14_p2	lambda_cid14_p3	lambda_cid14_p4	lambda_cid14_p5	/jointset/ground_pelvis/pelvis_tilt/accel	/jointset/ground_pelvis/pelvis_tx/accel	/jointset/ground_pelvis/pelvis_ty/accel	/jointset/hip_r/hip_flexion_r/accel	/jointset/hip_r/hip_adduction_r/accel	/jointset/hip_r/hip_rotation_r/accel	/jointset/back/lumbar_extension/accel	/jointset/patellofemoral_r/patellar_flexion_r/accel	/jointset/knee_r/knee_flexion_r/accel	/jointset/knee_r/knee_adduction_r/accel	/jointset/knee_r/knee_rotation_r/accel	/jointset/ankle_r/ankle_angle_r/accel	/jointset/subtalar_r/subtalar_angle_r/accel	gamma_cid13_p0	gamma_cid14_p0	gamma_cid14_p1	gamma_cid14_p2	gamma_cid14_p3	gamma_cid14_p4	gamma_cid14_p5
1.5	-0.008843345737479642	0.05777611152573653	0.8524941333581549	0.6220473381071503	-0.2170725986963054	-0.158070514649731	-0.6047665341146071	0.815863521581968	0.8158635215819693	-0.04252447985328069	0.1745315179735207	0.2927444388848369	0.1474910749493858	0.2672347211237632	0.1796709583967246	0.3631389986766024	-1.50371056513224	0.005565385697183536	-0.1289016307290501	0.8030238068301531	-1.648201240302499	-1.648201240302409	0.4473115893616197	-6.478990355365251e-06	-0.5192564078237196	-0.2034500548771895	-0.1109474367374568	-0.0009505578869563497	0.01825271316601598	-0.2986344838047915	0.007552607239781257	-0.004406816571317673	0.1817522546522435	-15.78586906167294	-40.35098824882544	-7.303195513708329	-0.3279618725011678	-0.8664638739065309	-637.0575778504584	65.55199465030611	-0.03718450183085775	0.3818342187331712	-0.3929667381358423	-0.6972701878944041	-0.21576148448933	-0.6167615747666034	1.421112012733254	-1.042934289513747	-1.042934289513748	0.3334623224506945	-0.009377875909950545	-0.4385974357086983	-0.292594578022725	6.421687803484842e-08	4.698310816982419e-08	-4.379609922785338e-07	7.19382227567633e-07	1.990661961837248e-08	1.332874885041979e-07	-4.875036948738929e-07
1.51	-0.006173156603501822	0.05959167749017621	0.8561051377238721	0.6069772018099315	-0.2170282012817119	-0.1593902867551678	-0.5966664628729533	0.7993315975640484	0.7993315975640595	-0.03803409398250044	0.1745315471750016	0.287530527958086	0.1454415810512908	0.2667660192489983	0.1834168171983679	0.3589876315152236	-1.510111672350632	0.003311006502830364	-0.1350523699178474	0.8168746029650998	-1.657948622536469	-1.657948622536465	0.4507283038310187	6.646428198285354e-06	-0.5234488053844842	-0.2064109165428251	-0.1053959110378864	-0.002139132691577098	0.01800973151732168	-0.2953291734226123	0.00950186673417296	-0.005312697773229255	0.1763850561730833	-16.59750196212195	-39.560673659758	-7.447629896871577	-0.4312799159354544	-0.9790393796092963	-633.6852925235808	65.15158608772663	-0.05727270855713771	0.3671569974087314	-0.4373313544843777	-0.5807729434454797	-0.2306910163627568	-0.614048631055537	1.349687633781188	-0.9054131810762173	-0.9054131810891479	0.3401181332712729	0.005903554192350773	-0.3979945543575403	-0.2921833973347838	6.837198467289651e-08	4.238350377924155e-08	-5.425610399359121e-07	6.385927995323409e-07	3.277538938345796e-08	1.33736029004571e-07	-5.36072414303594e-07
1.52	-0.003508766423915538	0.06144394109993818	0.8596724064881061	0.5918492060496059	-0.2170064306349561	-0.1607715299605138	-0.5884313588259676	0.7827092451256472	0.7827092451256527	-0.03351067254220996	0.1745315567915325	0.2822770063281083	0.1433636082492389	0.2660749302439045	0.187010487461183	0.3543918783800032	-1.515282457754384	0.00104003213029897	-0.1411958507114137	0.8300303678962707	-1.66628692439994	-1.666286924400021	0.4539187032638896	-1.039601507499839e-05	-0.5271785484691371	-0.2091458356684939	-0.09984438533832656	-0.003327707496193427	0.01776674986861369	-0.2920238630404368	0.01145112622856584	-0.006218578975133209	0.171017857693915	-17.40285760374006	-38.77262394273392	-7.591525048314279	-0.5357529528857564	-1.102218329353185	-630.3514053381508	64.79031068940915	-0.08166192789644683	0.3513965109673261	-0.481843932904142	-0.451205824966503	-0.2190805201249372	-0.615309895720327	1.28210577197818	-0.7611182154138048	-0.7611182154138222	0.2881993151450263	-0.01541144827541449	-0.3460665404865844	-0.2474060700293979	7.278231591554243e-08	3.793035251792754e-08	-6.505222376909877e-07	5.48423988823631e-07	4.598072950739137e-08	1.330200364048817e-07	-5.78519842087783e-07
1.53	-0.0008523719788880091	0.06333133784306778	0.8631915549687562	0.5766756495005951	-0.2170073657242888	-0.1622146294847424	-0.5800683312773369	0.7660105368218948	0.7660105368219083	-0.02895690700672092	0.1745315192808604	0.2769885320633971	0.1412595505375658	0.2651658808111613	0.1904388785129444	0.349368463209988	-1.519216497090345	-0.001227796131461541	-0.1474176010881957	0.8424471840151445	-1.673210283777849	-1.673210283777861	0.4567974214950732	-1.919772741486165e-06	-0.530435907471517	-0.2116261734515581	-0.09422385159043321	-0.004612962127125189	0.01753316618074974	-0.2888828646059891	0.01347932289665423	-0.007173856146183788	0.1656025254568398	-18.20092737589913	-37.97563381560584	-7.760226650376588	-0.6306521747266763	-1.203859006426233	-627.1838584239761	64.43410491512175	-0.1012359589034437	0.3340763649123636	-0.5229674858908032	-0.3326466165935606	-0.2307498126565454	-0.6245322602465559	1.202275859881813	-0.6212929070092937	-0.6212929069988944	0.2820579675350665	0.008310146599159074	-0.3034815255401915	-0.2425000470726505	7.746382330057354e-08	3.363280770646142e-08	-7.620546574248665e-07	4.482895840244147e-07	5.954367563760071e-08	1.310667273863762e-07	-6.144633974986155e-07
1.54	0.001793790070231245	0.06525212168924152	0.8666583938623379	0.5614691238324909	-0.2170310022629328	-0.1637197314430562	-0.5715849743019082	0.7492499253027626	0.7492499253027727	-0.02437548431083649	0.1745314331297536	0.2716699020195775	0.1391318589651361	0.264028451060796	0.193687908070009	0.3439299609663133	-1.521876281573621	-0.003500257731413585	-0.1535963375285561	0.8540962532556027	-1.678667567476948	-1.678667567476891	0.4594501353434619	-2.012408594974538e-05	-0.5332097042909579	-0.2138726078197332	-0.08860331784255668	-0.005898216758070484	0.01729958249288359	-0.285741866171544	0.01550751956473866	-0.008129133317256079	0.1601871932197537	-18.99098166680152	-37.18009120960964	-7.928868160527093	-0.7259191928743464	-1.315376103956065	-624.0427978026764	64.10883991179493	-0.1273379914206758	0.3155242120277906	-0.5648613476360447	-0.196354854429825	-0.2200071877632661	-0.6067071084360888	1.128556396295173	-0.4679030796517269	-0.467903079651725	0.2429984385860172	-0.02074755938365512	-0.2493541038990288	-0.200625387051688	8.246516545167438e-08	2.987907762129657e-08	-8.738640049102906e-07	3.446977518472763e-07	7.289980466625722e-08	1.28382325261917e-07	-6.438181644493819e-07
1.55	0.004427480075292715	0.06720446028275365	0.8700688430768297	0.5462423399714971	-0.2170772724798954	-0.1652869239218354	-0.5629891359945987	0.7324420353361841	0.7324420353361862	-0.01976916377330738	0.1745313410014025	0.2663259883534344	0.1369830453906478	0.2626712413237356	0.1967456851416058	0.3380963582941234	-1.523262199711533	-0.005751178498425245	-0.1598332136757124	0.8649313514850168	-1.682657502202987	-1.682657502202962	0.4617725233281583	-4.016586861201721e-07	-0.5354887526380568	-0.2158473851602521	-0.08292263076426587	-0.007317251059644985	0.01706068481389633	-0.2828161219633287	0.0176360561474127	-0.009100140415688502	0.1547437756843596	-19.77261925884011	-36.3694008695015	-8.104022445454564	-0.8174824062150694	-1.417983927857035	-621.1276862174856	63.83450723112293	-0.1456572760032686	0.295804291595731	-0.6021136934742723	-0.07696479177465074	-0.2273050794137664	-0.6307426270187713	1.039978028338659	-0.3266182872625149	-0.3266182872673466	0.2204984159224426	0.01302918404348857	-0.2044994659038873	-0.1896398116779744	8.783501287672513e-08	2.675191667730488e-08	-9.85992421326843e-07	2.371223620390536e-07	8.601764442573332e-08	1.248555767327722e-07	-6.655815012178986e-07
1.56	0.007046449020759392	0.06918635661435593	0.8734190554713067	0.5310082460294661	-0.2171459860161808	-0.1669161981139163	-0.5542891484065789	0.7156018300987115	0.7156018300986959	-0.01514089146843183	0.1745313855054302	0.2609618203506628	0.1348157368619287	0.2610842391404787	0.1995994556880445	0.3318825969633398	-1.523338297781562	-0.007988921595180304	-0.1660126801894035	0.8749261093973862	-1.685130621656326	-1.685130621656332	0.4638404888132965	7.202379060834021e-06	-0.5372605716166996	-0.2175715986658112	-0.07724194368598976	-0.008736285361219797	0.01682178713492433	-0.2798903777551168	0.01976459273008532	-0.01007114751412199	0.1493003581489549	-20.54573916840096	-35.55919138512259	-8.279705313691029	-0.9084537599416954	-1.529831609356527	-618.2241499719443	63.58124396944821	-0.1732964806597798	0.2747229069959619	-0.6408930793547716	0.06560915914682548	-0.217371653711925	-0.5952251817430032	0.9604883328863848	-0.1645400251114767	-0.164540025111476	0.1921139386742981	-0.0231712372870205	-0.1479082302080243	-0.1505126200597428	9.295089777030731e-08	2.367216352433931e-08	-1.081727908306304e-06	1.39713506439979e-07	9.826088212308977e-08	1.166485659995289e-07	-6.766096164555816e-07
1.57	0.00964839737068148	0.07119571665091705	0.8767052916779579	0.5157800186818913	-0.2172368767699685	-0.1686073080027577	-0.5454935227455118	0.698744515433723	0.6987445154337301	-0.01049364162400175	0.174531613835501	0.2555825095332615	0.1326326326621033	0.2592699372197237	0.2022328073422819	0.3253079427927026	-1.522084118056168	-0.01018051383129249	-0.1721933299747987	0.8840437702519691	-1.686071820492291	-1.686071820492291	0.4655594716804334	3.239058409630974e-05	-0.538515078165822	-0.2190003240225091	-0.07156711222482562	-0.01001911726976603	0.01654980430948224	-0.2770791196230381	0.02186089263940122	-0.01117512261246148	0.1438777132451009	-21.31057645488087	-34.78888882959956	-8.530706187651779	-0.9753294611407313	-1.579468842155982	-615.5846400576371	63.2170249777656	-0.1908192465668242	0.2517028178587061	-0.6742379225497629	0.1887818295911335	-0.2188532071329932	-0.6270099647421404	0.8641170774232139	-0.01985628782564401	-0.01985628782455515	0.1541155641620016	0.01443335970645888	-0.1011987452165146	-0.1319035737771879	9.77493294995538e-08	2.065167011015638e-08	-1.1569722334894e-06	5.501281860233949e-08	1.094108672427967e-07	1.025912275111625e-07	-6.742187047797222e-07
